<?xml version="1.0" encoding="UTF-8" standalone="no"?>
<!-- Created with Inkscape (http://www.inkscape.org/) -->

<svg
   xmlns:dc="http://purl.org/dc/elements/1.1/"
   xmlns:cc="http://creativecommons.org/ns#"
   xmlns:rdf="http://www.w3.org/1999/02/22-rdf-syntax-ns#"
   xmlns:svg="http://www.w3.org/2000/svg"
   xmlns="http://www.w3.org/2000/svg"
   xmlns:xlink="http://www.w3.org/1999/xlink"
   xmlns:sodipodi="http://sodipodi.sourceforge.net/DTD/sodipodi-0.dtd"
   xmlns:inkscape="http://www.inkscape.org/namespaces/inkscape"
   version="1.1"
   id="svg815"
   width="1038.7289"
   height="237.33334"
   viewBox="0 0 1038.7288 237.33334"
   sodipodi:docname="memphis-oa.svg"
   inkscape:version="0.92.2 (5c3e80d, 2017-08-06)">
  <metadata
     id="metadata821">
    <rdf:RDF>
      <cc:Work
         rdf:about="">
        <dc:format>image/svg+xml</dc:format>
        <dc:type
           rdf:resource="http://purl.org/dc/dcmitype/StillImage" />
        <dc:title></dc:title>
      </cc:Work>
    </rdf:RDF>
  </metadata>
  <defs
     id="defs819">
    <linearGradient
       inkscape:collect="always"
       id="linearGradient832">
      <stop
         style="stop-color:#000000;stop-opacity:1;"
         offset="0"
         id="stop828" />
      <stop
         style="stop-color:#000000;stop-opacity:0;"
         offset="1"
         id="stop830" />
    </linearGradient>
    <linearGradient
       inkscape:collect="always"
       xlink:href="#linearGradient832"
       id="linearGradient838"
       x1="507.62384"
       y1="1328.3672"
       x2="496.54471"
       y2="-5.9733386"
       gradientUnits="userSpaceOnUse" />
  </defs>
  <sodipodi:namedview
     pagecolor="#ffffff"
     bordercolor="#666666"
     borderopacity="1"
     objecttolerance="10"
     gridtolerance="10"
     guidetolerance="10"
     inkscape:pageopacity="0"
     inkscape:pageshadow="2"
     inkscape:window-width="1920"
     inkscape:window-height="1028"
     id="namedview817"
     showgrid="false"
     fit-margin-top="0"
     fit-margin-left="0"
     fit-margin-right="0"
     fit-margin-bottom="0"
     inkscape:zoom="1.4441591"
     inkscape:cx="482.70195"
     inkscape:cy="123.32687"
     inkscape:window-x="-8"
     inkscape:window-y="-8"
     inkscape:window-maximized="1"
     inkscape:current-layer="svg815" />
  <path
     style="fill:url(#linearGradient838);fill-opacity:1;stroke-width:1.33333337;stroke:none;stroke-opacity:1"
     d="m 0.0065166,214.33334 0.00652,-23 24.0795924,-28.66667 c 13.243775,-15.76666 25.757761,-30.37204 27.808856,-32.4564 l 3.729262,-3.78973 14.711324,17.37415 c 8.091228,9.55578 15.124311,16.96116 15.629073,16.4564 0.504763,-0.50476 0.717751,-0.26286 0.473306,0.53757 -0.244444,0.80041 8.855554,12.47227 20.22222,25.93743 l 20.66667,24.4821 0.35884,-29.60409 0.35884,-29.60409 H 132.02551 136 V 83.33333 14.66667 h 5.33334 c 2.93333,0 5.33333,-0.6 5.33333,-1.33334 0,-0.73333 -0.6,-1.33333 -1.33333,-1.33333 -2.15206,0 -1.52792,-3.64003 0.77572,-4.52401 1.15997,-0.44513 3.85997,-0.80932 6,-0.80932 3.26145,0 3.89095,-0.53928 3.89095,-3.333336 0,-3.25926 0.22222,-3.333334 10,-3.333334 9.77777,0 10,0.07408 10,3.333334 0,2.794056 0.62949,3.333336 3.89094,3.333336 2.14003,0 4.84003,0.36419 6,0.80932 2.30364,0.88398 2.92778,4.52401 0.77572,4.52401 -0.73333,0 -1.33333,0.6 -1.33333,1.33333 0,0.73334 2.7,1.33334 6,1.33334 h 6 v 60.66666 60.66668 h 5.33333 5.33334 v 32.66666 c 0,31.77778 0.0725,32.66667 2.66666,32.66667 2.57002,0 2.66667,-0.88889 2.66667,-24.52401 0,-20.56914 0.32253,-24.64779 2,-25.2915 1.1,-0.4221 2,-1.68629 2,-2.80932 0,-1.15294 1.16089,-2.04184 2.66667,-2.04184 2.57582,0 2.66666,-0.88889 2.66666,-26.09524 0,-20.838086 0.38374,-26.478966 1.90476,-27.999996 2.16467,-2.16467 8.76191,-2.59492 8.76191,-0.57143 0,0.73334 0.9,1.33334 2,1.33334 1.44444,0 2,-1.48148 2,-5.33334 0,-2.933334 0.48115,-5.333334 1.06923,-5.333334 0.58806,0 0.9659,2.4 0.83964,5.333334 -0.12627,2.93334 0.29257,5.33334 0.93077,5.33334 0.6382,0 1.16036,2.4 1.16036,5.33333 V 104 h 31.86123 31.86123 l 0.94421,-10.666656 c 0.97429,-11.006424 3.33333,-14.780894 3.33333,-5.33334 0,2.93334 0.6,5.33334 1.33334,5.33334 0.73333,0 1.33333,-1.53541 1.33333,-3.41203 0,-1.93515 0.57712,-3.055344 1.33333,-2.58798 0.73334,0.45323 1.33334,1.98864 1.33334,3.41203 0,2.13042 0.94294,2.58798 5.33333,2.58798 h 5.33333 v 19.333326 19.33334 h 3.33334 c 3.27777,0 3.33333,0.17777 3.33333,10.66666 0,10.43351 0.0715,10.66667 3.26967,10.66667 h 3.26968 l 0.69825,-21 c 1.29241,-38.869046 2.13728,-49.56704 3.86224,-48.90511 0.99976,0.38364 3.07055,-3.5121 5.53215,-10.40753 3.04161,-8.52019 4.05648,-13.9703 4.47288,-24.0207 0.55857,-13.48175 2.89513,-18.32374 2.89513,-5.9995 0,12.72919 8.3898,44.683554 10.73544,40.88823 1.09111,-1.76544 1.56732,4.752584 3.66124,50.11128 0.60936,13.2 1.81268,25.6714 2.67404,27.71424 1.29266,3.06569 1.21951,3.84724 -0.41897,4.47598 -1.61585,0.62006 -1.98508,3.95922 -1.98508,17.95243 0,10.57156 0.51339,17.19068 1.33333,17.19068 0.77778,0 1.33334,-4.44444 1.33334,-10.66667 0,-9.77777 0.22222,-10.66666 2.66666,-10.66666 2.61587,0 2.66667,-0.8889 2.66667,-46.66667 V 86.66667 h 18 18 v -5.33334 c 0,-2.93333 0.6,-5.33333 1.33333,-5.33333 0.73334,0 1.33334,-1.0665 1.33334,-2.36999 0,-3.91003 3.67042,-7.95087 10.69465,-11.77393 l 6.63868,-3.61322 V 45.12143 c 0,-17.10369 2.44915,-17.23161 2.95172,-0.15417 l 0.38161,12.96725 7.71354,5.10041 c 5.7175,3.78058 7.91704,6.11797 8.5,9.03274 0.43256,2.16279 1.31146,3.93234 1.95313,3.93234 0.64167,0 1.16667,5.1 1.16667,11.333334 v 11.33334 h 4 c 3.85185,0 4,0.22222 4,5.999996 0,5.96825 0.0247,6 4.66667,6 4.55556,0 4.66666,0.12699 4.66666,5.33334 0,5.03703 0.22223,5.33333 4,5.33333 h 4 l 0.2714,35 c 0.14927,19.25 0.47455,29.98721 0.72284,23.86048 0.39434,-9.73025 0.7817,-11.22588 3.06194,-11.82217 2.27282,-0.59436 2.61049,-1.86983 2.61049,-9.86048 v -9.17783 h 6 6 v 9.33333 9.33334 h 4.66667 4.66666 l 0.10534,-10.33334 c 0.0579,-5.68333 0.40789,-9.58333 0.77777,-8.66666 1.82977,4.53465 3.12741,0.50748 3.22223,-10 0.0579,-6.41667 0.40789,-10.91667 0.77777,-10 0.36988,0.91666 1.57935,1.66666 2.68771,1.66666 1.72369,0 1.96969,-2.94128 1.70068,-20.33333 -0.2878,-18.606466 -0.0569,-20.927826 2.71813,-27.33334 1.66788,-3.85 3.85257,-7 4.85481,-7 1.00223,0 1.82223,-1.2 1.82223,-2.66667 0,-1.48148 0.88889,-2.66666 2,-2.66666 1.11111,0 2,1.18518 2,2.66666 0,2.52413 0.88889,2.66667 16.6296,2.66667 h 16.6296 l 2.86793,6.66667 c 1.57735,3.66666 3.24423,6.666664 3.70418,6.666664 0.45995,0 0.62195,9.30001 0.36,20.666666 -0.33427,14.50581 -0.0363,20.66667 0.99956,20.66667 0.81169,0 1.4758,-0.6 1.4758,-1.33333 0,-0.73333 0.6,-1.33333 1.33333,-1.33333 0.73334,0 1.33334,3 1.33334,6.66666 0,5.77778 0.35556,6.66667 2.66666,6.66667 2.2716,0 2.66667,0.88889 2.66667,6 0,5.51111 0.2716,6 3.33333,6 2.92064,0 3.33334,-0.57777 3.33334,-4.66667 0,-2.56666 0.6,-4.66666 1.33333,-4.66666 0.73333,0 1.33333,-0.83191 1.33333,-1.84867 0,-1.05227 1.80004,-2.11285 4.17838,-2.46192 3.25164,-0.47724 4.32116,-0.0672 4.82217,1.84867 0.89105,3.4074 5.66612,3.23485 5.66612,-0.20475 0,-1.95556 0.88889,-2.66667 3.33333,-2.66667 2.62638,0 3.33334,-0.6763 3.33334,-3.18878 0,-3.87023 4.13194,-5.24804 11.97652,-3.99364 4.39893,0.70341 5.35681,1.38909 5.35681,3.83461 0,2.45759 0.58252,2.86667 3.33333,2.34081 3.18678,-0.60918 4.7797,-2.993 2,-2.993 -0.73333,0 -1.33333,-0.9 -1.33333,-2 0,-1.1 0.58117,-2 1.29149,-2 0.71031,0 0.94432,-0.90468 0.52002,-2.0104 -0.42431,-1.10572 0.56168,-7.40572 2.19106,-14 l 2.96252,-11.9896 h 43.13274 43.13272 l 1.30115,5 c 5.22442,20.07635 5.36622,20.9057 3.7499,21.93287 -1.24882,0.79364 -1.2371,1.03093 0.0517,1.04672 0.91666,0.0107 1.66666,0.92041 1.66666,2.02041 0,1.1 -0.6,2 -1.33333,2 -0.73333,0 -1.33333,2.96379 -1.33333,6.58618 v 6.58618 l 5,0.41382 5,0.41382 0.66666,8.71056 c 0.62979,8.2286 0.8511,8.70992 4,8.69892 2.43406,-0.008 3.44828,0.789 3.7594,2.95611 0.23434,1.63225 1.28434,2.96775 2.33334,2.96775 1.5854,0 1.90726,-4.16267 1.90726,-24.66667 0,-15.44444 0.4985,-24.72898 1.33334,-24.83333 0.73333,-0.0917 2.08333,-0.24193 3,-0.33392 1.27388,-0.12784 1.72938,-7.66669 1.9328,-31.988346 C 762.50592,61.50419 763.19288,53.38455 764.9603,58.33333 765.3948,59.54992 770.20633,60 782.77776,60 h 17.22223 V 50 c 0,-5.77778 0.56296,-10 1.33333,-10 0.77037,0 1.33333,4.22222 1.33333,10 v 10 h 20.4 c 14.0889,0 20.89499,-0.49499 22,-1.6 1.24444,-1.24444 1.6,10.01482 1.6,50.66667 0,28.74667 0.26278,52.26667 0.58394,52.26667 0.32116,0 4.67116,-0.94868 9.66666,-2.10817 24.98888,-5.8001 59.69302,-7.47675 82.59082,-3.9902 6.69611,1.01958 27.09611,5.79182 45.33333,10.60496 18.2373,4.81314 37.8086,9.4411 43.492,10.28437 7.5682,1.12293 10.3333,2.06369 10.3333,3.51567 0,1.44884 -0.8973,1.75726 -3.3333,1.14585 -3.1873,-0.79995 -3.3334,-0.57252 -3.3334,5.18879 0,7.11688 1.3864,7.66372 4.2897,1.69206 1.9983,-4.1101 2.1153,-2.94246 2.273,22.66667 l 0.1661,27 H 519.36442 0 Z M 894.6667,220.00001 c 0,-3.55556 -0.44444,-4 -4,-4 -3.55556,0 -4,0.44444 -4,4 0,3.55556 0.44444,4 4,4 3.55556,0 4,-0.44444 4,-4 z m 108,-2.66667 c 0,-0.73333 -0.9,-1.33333 -2,-1.33333 -1.09998,0 -1.99998,0.6 -1.99998,1.33333 0,0.73333 0.9,1.33333 1.99998,1.33333 1.1,0 2,-0.6 2,-1.33333 z m -47.66667,-4.88304 c -0.91667,-0.36988 -2.41667,-0.36988 -3.33333,0 -0.91667,0.36988 -0.16667,0.67252 1.66666,0.67252 1.83334,0 2.58334,-0.30264 1.66667,-0.67252 z m 47.30557,0.0775 c -0.4431,-0.44306 -1.5931,-0.49042 -2.55558,-0.1052 -1.0636,0.42562 -0.7477,0.74157 0.80558,0.80554 1.4055,0.0579 2.193,-0.25724 1.75,-0.70029 z M 888.00003,190.00001 c 0,-19.16655 -0.0259,-19.33316 -3,-19.31292 -5.85283,0.0399 -6.46759,1.47061 -6.05514,14.09234 0.38783,11.86759 0.39454,11.88794 4.05514,12.30914 3.38521,0.38952 3.66667,0.87566 3.66667,6.33333 0,3.25129 0.3,5.91144 0.66666,5.91144 0.36667,0 0.66667,-8.7 0.66667,-19.33333 z m 6.66667,16.29434 c 0,-1.67144 1.2,-3.90389 2.66666,-4.96101 2.39546,-1.72655 2.66667,-3.45159 2.66667,-16.96101 v -15.03899 h -4.66667 -4.66666 v 20 c 0,16.88889 0.3111,20 2,20 1.19278,0 2,-1.22656 2,-3.03899 z m 61.11754,-10.96101 c -0.3972,-10.72993 -0.12106,-14 1.18211,-14 1.00039,0 1.70035,-1.64663 1.70035,-4 0,-2.3014 -0.70775,-4.00773 -1.66667,-4.0182 -0.91667,-0.0107 -3.01667,-0.38 -4.66667,-0.82219 -2.97053,-0.79606 -2.99985,-0.66821 -2.98532,13.01822 0.0199,18.72181 0.94287,23.82217 4.311,23.82217 2.50076,0 2.61547,-0.75564 2.1252,-14 z m 49.54916,4.14265 c 0,-9.75898 -0.8143,-11.47598 -5.44238,-11.47598 -0.6734,0 -1.2243,4.8 -1.2243,10.66666 0,10.4889 0.056,10.66667 3.33328,10.66667 3.255,0 3.3334,-0.23173 3.3334,-9.85735 z m 8.1617,1.86424 c -0.3559,-6.61676 -1.6314,-9.26134 -4.4951,-9.31981 -0.55,-0.0107 -1,3.92132 -1,8.73899 0,8.27466 0.163,8.73582 2.9446,8.33333 2.6857,-0.38861 2.9099,-1.07013 2.5505,-7.75251 z m -160.17214,-9.67356 c 0.005,-7.15 -0.54053,-13 -1.21388,-13 -4.90851,0 -5.44239,1.50584 -5.44239,15.35054 v 13.7319 l 3.32294,-1.54122 c 3.20792,-1.48788 3.32329,-1.99112 3.33333,-14.54122 z m 9.34373,11.0787 c 0,-2.89006 0.6,-5.62547 1.33334,-6.0787 0.73333,-0.45322 1.33333,-5.60006 1.33333,-11.43742 v -10.61338 l -3.66667,0.87642 c -2.01666,0.48202 -4.11666,1.12886 -4.66666,1.43742 -0.55,0.30855 -1,7.4256 -1,15.81566 v 15.25464 h 3.33333 c 2.99168,0 3.33333,-0.53858 3.33333,-5.25464 z m 49.33334,-19.55791 c 0,-15.99141 -0.0209,-16.03875 -6.33333,-14.34707 -2.88434,0.77296 -3,1.37884 -3,15.71406 v 14.91009 l 4.66666,-0.54481 4.66667,-0.5448 z m 8,0.97921 v -15.83333 h -3.33333 -3.33334 v 15.83333 15.83334 h 3.33334 3.33333 z m 26.66667,1.7915 c 0,-11.42608 -0.38328,-14.18894 -2.05751,-14.83139 -1.13163,-0.43425 -2.37489,-0.47216 -2.7628,-0.0843 -0.53519,0.53518 -0.95916,21.28703 -0.57119,27.95747 0.032,0.55 1.25816,1 2.72483,1 2.49785,0 2.66667,-0.88889 2.66667,-14.04184 z m -69.33334,-1.98356 v -12.0254 l -3.66667,0.80342 c -2.01666,0.4419 -4.41666,1.0345 -5.33333,1.3169 -1.15236,0.35501 -1.66667,3.81789 -1.66667,11.22197 v 10.70851 h 5.33334 5.33333 z m 139.95204,1.69206 -0.048,-6.33333 -3.2787,4 c -1.8033,2.2 -3.2818,4.35831 -3.2854,4.79625 -0.01,0.61792 4.4263,3.2657 6.3267,3.78018 0.1833,0.0496 0.3118,-2.75976 0.2854,-6.2431 z m 12.048,1.44444 c 0,-2.68888 -0.1943,-4.63888 -0.4318,-4.33333 -0.2375,0.30556 -1.7784,2.50556 -3.4241,4.88889 l -2.9924,4.33334 h 3.4241 c 3.0541,0 3.4242,-0.5284 3.4242,-4.8889 z m -3.348,-7.1347 c -0.4452,-0.72035 -1.974,-1.30974 -3.3974,-1.30974 -2.1971,0 -2.588,0.95284 -2.588,6.30951 v 6.30952 l 3.3975,-4.99977 c 1.8686,-2.74988 3.0331,-5.58916 2.5879,-6.30952 z m -20.652,1.7273 v -4.96296 l -3,3.03986 c -2.94898,2.98816 -2.95598,3.07256 -0.4119,4.96296 3.465,2.57461 3.4119,2.62198 3.4119,-3.03986 z m 8.7498,-4.23588 c -1.9485,-3.15264 -4.7498,-1.48444 -4.7498,2.82847 v 4.29629 l 2.8284,-2.82846 c 1.5557,-1.55567 2.4203,-3.489 1.9214,-4.2963 z m -43.4165,1.9442 c 0,-2.24148 -0.7153,-2.73626 -5.66667,-3.91974 -3.26156,-0.77959 -3.66667,-0.50534 -3.66667,2.48232 0,2.94966 0.56836,3.35873 4.66667,3.35873 3.17432,0 4.66667,-0.61441 4.66667,-1.92131 z m 8.66666,0.58798 c -3.6836,-1.5829 -6,-1.5829 -6,0 0,0.73333 1.95,1.29116 4.33334,1.23961 3.63137,-0.0785 3.90136,-0.27933 1.66666,-1.23961 z m 15.33335,0.10906 c 0,-0.67336 -0.3534,-2.14512 -0.7853,-3.27058 -0.6378,-1.66235 -1.2633,-1.74771 -3.33328,-0.45499 -3.16936,1.97929 -3.23659,3.24107 -0.21476,4.03075 3.85204,1.00664 4.33334,0.97274 4.33334,-0.30518 z m 7.52229,-5.7553 c -2.96118,-1.90551 -4.85558,-0.97879 -4.85558,2.37514 0,3.35982 0.034,3.37035 3.18888,1 2.141,-1.60838 2.6887,-2.71746 1.6667,-3.37516 z m -19.5223,-0.32518 c 0,-3.04118 -0.26586,-3.18362 -3.33334,-1.78598 -4.1357,1.88436 -4.25697,3.39402 -0.33333,4.14976 1.65,0.3178 3.15,0.65953 3.33333,0.7594 0.18334,0.0999 0.33334,-1.30556 0.33334,-3.12318 z m -132.85117,-0.0286 c -0.42212,-1.1 -1.30328,-2 -1.95816,-2 -0.65486,0 -1.19068,0.9 -1.19068,2 0,1.1 0.88118,2 1.95816,2 1.19279,0 1.65818,-0.78172 1.19068,-2 z m 140.0341,-0.50048 c 2.14976,-2.37546 2.10176,-2.53128 -0.96001,-3.11658 -2.66484,-0.50941 -3.22292,-0.0764 -3.22292,2.50048 0,3.76874 1.17343,3.94156 4.18293,0.6161 z m -136.74702,-4.83284 c -0.2304,-3.42118 -0.93225,-4.66666 -2.62974,-4.66666 -3.81959,0 -4.27632,2.66101 -1.04678,6.0987 1.67132,1.77904 3.25298,3.23463 3.51479,3.23463 0.26181,0 0.33459,-2.1 0.16173,-4.66667 z m 7.29544,3.53282 c 2.18979,-0.86424 2.10295,-1.22364 -1,-4.13871 l -3.39802,-3.19228 v 4.23243 c 0,4.3951 0.39957,4.67662 4.39802,3.09856 z m 109.28789,0.33682 c 0.43836,-0.43836 0.47838,-1.62737 0.0889,-2.64224 -0.54629,-1.42362 -1.32807,-1.51342 -3.4216,-0.393 -2.18107,1.16727 -2.35113,1.68174 -0.86672,2.62183 2.19751,1.39171 3.12935,1.48345 4.19937,0.41341 z m 8.72698,-4.72136 c -3.18274,-2.01846 -5.07956,-1.19104 -5.07956,2.21579 0,3.30279 0.0621,3.32333 3.4129,1.12787 2.57254,-1.6856 2.98292,-2.5089 1.66666,-3.34366 z m -104.02349,1.0047 c -0.21418,-0.0997 -1.7394,-1.31799 -3.3894,-2.70716 -2.98547,-2.51355 -3,-2.50954 -3,0.8293 0,2.8746 0.48541,3.2623 3.3894,2.70716 1.86417,-0.35636 3.21417,-0.72954 3,-0.8293 z m 84.27727,-1.54855 c 0,-3.36085 -0.0327,-3.37108 -3.20088,-1 -2.77031,2.07333 -2.90483,2.51748 -1,3.30185 3.67829,1.51467 4.20088,1.22832 4.20088,-2.30185 z m -95.13254,-5.51473 c -0.36657,-0.36658 -1.96303,-0.25502 -3.54767,0.24793 l -2.88116,0.91445 3.11402,3.33268 3.11401,3.3327 0.43365,-3.58063 c 0.23852,-1.96933 0.13374,-3.88055 -0.23285,-4.24713 z m 102.31547,5.07649 c 2.15224,-2.3782 2.09715,-2.53216 -1.12668,-3.14844 -2.85652,-0.54605 -3.38959,-0.15281 -3.38959,2.50048 0,3.79663 1.47523,4.00828 4.51627,0.64796 z m -81.8496,-0.003 c 0,-0.64354 -0.9,-1.917 -2,-2.82992 -1.67094,-1.38676 -2,-1.19424 -2,1.17008 0,1.6266 0.85042,2.82992 2,2.82992 1.1,0 2,-0.52654 2,-1.17008 z m 62.66667,-2.36991 c 0,-3.44144 -0.0733,-3.4736 -2.63523,-1.15513 -2.79752,2.53172 -2.46857,4.69512 0.71392,4.69512 1.19041,0 1.92131,-1.34666 1.92131,-3.53999 z m -70.66667,-1.12668 c 0,-2.7246 -0.65118,-3.33333 -3.56575,-3.33333 h -3.56576 l 3.13151,3.33333 c 1.72233,1.8334 3.32692,3.3334 3.56574,3.3334 0.23884,0 0.43426,-1.5 0.43426,-3.33333 z m 19.2232,2.1782 c 0.39265,-0.63533 -0.47193,-2.22832 -1.92131,-3.53999 -2.56188,-2.31846 -2.63522,-2.2863 -2.63522,1.15514 0,3.42522 2.95702,4.9729 4.55653,2.38485 z m 58.88923,-1.36176 3.1997,-2.51688 -3.9894,-0.58552 c -3.45504,-0.50709 -3.9894,-0.16997 -3.9894,2.51688 0,3.75767 0.64579,3.83679 4.7791,0.58552 z m -66.34544,-6.15393 c -0.23851,-0.23487 -2.19143,-0.0895 -4.33982,0.32312 l -3.90615,0.75014 3.90615,3.13036 3.90616,3.13036 0.43366,-3.45348 c 0.23852,-1.89941 0.23852,-3.64564 0,-3.8805 z m 20.23301,6.32489 c 0,-0.55693 -1.2,-1.76203 -2.66667,-2.67797 -2.3343,-1.4578 -2.66666,-1.33159 -2.66666,1.01261 0,1.78907 0.88513,2.67796 2.66666,2.67796 1.46667,0 2.66667,-0.45567 2.66667,-1.0126 z m 13.16251,-0.18695 c 1.00605,-0.63729 1.5907,-1.87413 1.29924,-2.74854 -0.34238,-1.02712 -1.41691,-0.60978 -3.03583,1.17912 -2.54609,2.8134 -1.59051,3.67701 1.73659,1.56942 z m -21.16251,-3.46705 c 0,-2.66666 -0.66667,-3.33333 -3.33333,-3.33333 -4.12631,0 -4.27583,1.85531 -0.36999,4.59107 3.7824,2.64929 3.70332,2.67616 3.70332,-1.25774 z m 34.66667,1.17008 c 0,-1.77173 -0.36199,-1.86284 -2,-0.50341 -1.1,0.91292 -2,1.88639 -2,2.16325 0,0.27688 0.9,0.50342 2,0.50342 1.1,0 2,-0.97347 2,-2.16326 z m 7.73333,0.56326 c 2.35065,-2.35066 1.95561,-3.73334 -1.06667,-3.73334 -1.77777,0 -2.66666,0.8889 -2.66666,2.66667 0,3.02228 1.38268,3.41732 3.73333,1.06667 z m -31.73333,-3.06667 c 0,-2.7246 -0.65118,-3.33333 -3.56575,-3.33333 h -3.56576 l 3.13151,3.33333 c 1.72233,1.83333 3.32692,3.33333 3.56574,3.33333 0.23884,0 0.43426,-1.5 0.43426,-3.33333 z m 8,0 3.1315,-3.33333 h -3.56576 c -2.91457,0 -3.56574,0.60873 -3.56574,3.33333 0,1.83333 0.19541,3.33333 0.43425,3.33333 0.23883,0 1.84341,-1.5 3.56575,-3.33333 z m 12.66666,0.66667 c 2.35572,-2.60304 2.32884,-2.66667 -1.12668,-2.66667 -2.65109,0 -3.53998,0.6696 -3.53998,2.66667 0,1.46666 0.50701,2.66666 1.12668,2.66666 0.61968,0 2.21266,-1.2 3.53998,-2.66666 z"
     id="path825"
     inkscape:connector-curvature="0" />
</svg>
